<svg xmlns="http://www.w3.org/2000/svg" xmlns:xlink="http://www.w3.org/1999/xlink" viewBox="0 0 176.36 42"><defs><style>.cls-1{fill:url(#linear-gradient);}.cls-2{fill:none;}.cls-3{fill:url(#linear-gradient-2);}.cls-4{fill:url(#linear-gradient-3);}.cls-5{fill:url(#linear-gradient-4);}.cls-6{fill:url(#linear-gradient-5);}.cls-7{fill:url(#linear-gradient-6);}.cls-8{fill:url(#linear-gradient-7);}.cls-9{fill:url(#linear-gradient-8);}.cls-10{fill:url(#linear-gradient-9);}.cls-11{fill:url(#linear-gradient-10);}.cls-12,.cls-13{fill:#fff;}.cls-13{fill-rule:evenodd;}</style><linearGradient id="linear-gradient" y1="20.5" x2="37.09" y2="20.5" gradientUnits="userSpaceOnUse"><stop offset="0" stop-color="#7e8082"/><stop offset="1" stop-color="#99989b"/></linearGradient><linearGradient id="linear-gradient-2" x1="1.96" y1="20.79" x2="35.13" y2="20.79" gradientUnits="userSpaceOnUse"><stop offset="0" stop-color="#d7d6d1"/><stop offset="0.34" stop-color="#eae9e6"/><stop offset="0.72" stop-color="#f9f9f9"/><stop offset="1" stop-color="#fff"/></linearGradient><linearGradient id="linear-gradient-3" x1="2.7" y1="16.14" x2="34.38" y2="16.14" xlink:href="#linear-gradient"/><linearGradient id="linear-gradient-4" x1="2.91" y1="22.57" x2="34.02" y2="22.57" xlink:href="#linear-gradient"/><linearGradient id="linear-gradient-5" x1="0.05" y1="2.46" x2="37.09" y2="2.46" gradientUnits="userSpaceOnUse"><stop offset="0" stop-color="#737274"/><stop offset="0.18" stop-color="#9c9b9a"/><stop offset="0.39" stop-color="#c6c5c2"/><stop offset="0.49" stop-color="#d7d6d1"/><stop offset="0.64" stop-color="#c6c5c2"/><stop offset="0.93" stop-color="#9a999c"/><stop offset="1" stop-color="#8f8e92"/></linearGradient><linearGradient id="linear-gradient-6" x1="3.47" y1="17.8" x2="33.54" y2="17.8" gradientUnits="userSpaceOnUse"><stop offset="0" stop-color="#8b1913"/><stop offset="0.01" stop-color="#901914"/><stop offset="0.1" stop-color="#b3151a"/><stop offset="0.18" stop-color="#cc131e"/><stop offset="0.25" stop-color="#dc1120"/><stop offset="0.31" stop-color="#e11121"/><stop offset="0.7" stop-color="#e11121"/><stop offset="0.76" stop-color="#dc1120"/><stop offset="0.83" stop-color="#cd131e"/><stop offset="0.91" stop-color="#b5151a"/><stop offset="0.98" stop-color="#931814"/><stop offset="1" stop-color="#8b1913"/></linearGradient><linearGradient id="linear-gradient-7" x1="5.14" y1="27.05" x2="31.84" y2="27.05" xlink:href="#linear-gradient-6"/><linearGradient id="linear-gradient-8" x1="3.04" y1="11.16" x2="34.06" y2="11.16" xlink:href="#linear-gradient-6"/><linearGradient id="linear-gradient-9" x1="0.58" y1="20.5" x2="36.51" y2="20.5" gradientUnits="userSpaceOnUse"><stop offset="0" stop-color="#828486"/><stop offset="0.18" stop-color="#b6b5b4"/><stop offset="0.37" stop-color="#e6e2df"/><stop offset="0.47" stop-color="#f8f3ef"/><stop offset="0.55" stop-color="#efebe7"/><stop offset="0.68" stop-color="#d7d4d1"/><stop offset="0.84" stop-color="#afafae"/><stop offset="1" stop-color="#828486"/></linearGradient><linearGradient id="linear-gradient-10" x1="2.61" y1="4.36" x2="34.48" y2="4.36" xlink:href="#linear-gradient"/></defs><title>logo grupo veloci</title><g id="Capa_2" data-name="Capa 2"><g id="Capa_1-2" data-name="Capa 1"><path class="cls-1" d="M5.4,1.81h0A20.71,20.71,0,0,0,.82,3.72L.05,4.2l0,.9a31,31,0,0,0,.45,5.8A46.34,46.34,0,0,0,4.87,24.37a59.12,59.12,0,0,0,7.94,12,35.89,35.89,0,0,0,3,3.09C17.28,40.74,18,41,18.58,41s1.31-.28,2.78-1.65a38.27,38.27,0,0,0,3.05-3.24,60.19,60.19,0,0,0,7.77-11.75A47.16,47.16,0,0,0,37.09,5.18v-1l-.81-.5a21.42,21.42,0,0,0-4.61-1.91A44.61,44.61,0,0,0,18.52,0,44.32,44.32,0,0,0,5.4,1.81Z"/><path class="cls-2" d="M5.88,2.49h0A20.41,20.41,0,0,0,1.47,4.33L.73,4.8l0,.87a29.64,29.64,0,0,0,.43,5.58,44.73,44.73,0,0,0,4.25,13A57.77,57.77,0,0,0,13,35.76a34.52,34.52,0,0,0,2.89,3C17.32,40,18,40.26,18.58,40.26s1.26-.27,2.68-1.59a36.89,36.89,0,0,0,2.93-3.12,56.84,56.84,0,0,0,7.49-11.33A45.32,45.32,0,0,0,36.42,5.74V4.82l-.78-.49a20.86,20.86,0,0,0-4.44-1.84A43,43,0,0,0,18.52.75,43.09,43.09,0,0,0,5.88,2.49Z"/><path class="cls-3" d="M18.53,2.3A44.87,44.87,0,0,1,31.62,4.08a22.85,22.85,0,0,1,3.51,1.35,47.57,47.57,0,0,1-4.87,18.14,60.8,60.8,0,0,1-7.87,11.84,29.47,29.47,0,0,1-3.81,3.87,27.78,27.78,0,0,1-3.73-3.67,59.1,59.1,0,0,1-8-12A46,46,0,0,1,2.41,10.2,35.68,35.68,0,0,1,2,5.44,24.66,24.66,0,0,1,5.48,4.08h0A44.49,44.49,0,0,1,18.53,2.3Z"/><polygon class="cls-4" points="34.38 8.83 33.72 8.83 18.39 19.36 3.38 8.73 2.69 8.75 2.84 9.16 3.48 10.2 18.39 23.56 33.41 10.6 34.38 8.83"/><polygon class="cls-5" points="18.33 25.23 4.15 13.17 2.91 13.61 4.01 14.89 5.15 16.83 18.32 31.97 31.57 17.37 32.87 15.19 34.02 13.55 32.89 13.3 18.33 25.23"/><path class="cls-6" d="M5.37,1.81h0A20.47,20.47,0,0,0,.8,3.72L.05,4.2l.69.64s35.58.14,35.58,0l.77-.67-.84-.5a20.9,20.9,0,0,0-4.6-1.91A44.61,44.61,0,0,0,18.5,0,44.45,44.45,0,0,0,5.37,1.81Z"/><path class="cls-7" d="M32.89,13.3c.24-1,.49-2.08.65-2.94L18.61,23.3,3.47,10.16c.14.88.34,1.9.62,3L18.55,25.44Z"/><path class="cls-8" d="M22.34,27.39l-3.79,4.28-3.79-4.28L9.4,21.5,5.14,16.82a43.84,43.84,0,0,0,2.43,5.77,55.61,55.61,0,0,0,7.51,11.26,27.67,27.67,0,0,0,3.49,3.44,27.52,27.52,0,0,0,3.57-3.62A57.18,57.18,0,0,0,29.5,22.59,42,42,0,0,0,31.84,17Z"/><path class="cls-9" d="M18.61,19.62,33.74,8.82c.2-1.42.28-2.53.32-3.2a23.15,23.15,0,0,0-3.29-1.26A41.9,41.9,0,0,0,18.53,2.7,41.6,41.6,0,0,0,6.32,4.36,22.84,22.84,0,0,0,3,5.63a29.93,29.93,0,0,0,.23,3.1Z"/><path class="cls-10" d="M36.51,4.73l-.79-.49a21.37,21.37,0,0,0-4.46-1.85A43.42,43.42,0,0,0,18.52.64,43.12,43.12,0,0,0,5.81,2.39,20.24,20.24,0,0,0,1.37,4.25l-.74.46,0,.88A29.53,29.53,0,0,0,1,11.2,45,45,0,0,0,5.3,24.25,57.36,57.36,0,0,0,13,35.84a36.57,36.57,0,0,0,2.9,3c1.43,1.28,2.11,1.54,2.69,1.54s1.26-.27,2.69-1.6a38.76,38.76,0,0,0,3-3.13,58.53,58.53,0,0,0,7.52-11.4A45.61,45.61,0,0,0,36.51,5.66ZM3.06,10.28c-.05-.34-.1-.67-.14-1L18.6,22.74,34.09,9.38c-.18,1.18-.43,2.54-.78,4L18.54,26,3.67,13.31C3.4,12.18,3.2,11.16,3.06,10.28ZM6,4.38A42.25,42.25,0,0,1,18.53,2.66,42.48,42.48,0,0,1,31.09,4.38a21.75,21.75,0,0,1,3.38,1.3c0,.67-.12,1.76-.31,3.15L18.6,20.11,2.85,8.76c-.16-1.38-.21-2.43-.22-3.07A23,23,0,0,1,6,4.38Zm23.79,18.8a58.13,58.13,0,0,1-7.56,11.43,28.66,28.66,0,0,1-3.65,3.74A27.51,27.51,0,0,1,15,34.8,57.63,57.63,0,0,1,7.28,23.18,45.72,45.72,0,0,1,4.13,15.1l5.78,6.38L15,27.07l3.57,4.05,3.58-4.05L32.84,15.22A44.06,44.06,0,0,1,29.79,23.18Z"/><path class="cls-11" d="M6,4.8A42.74,42.74,0,0,1,18.53,3.09,43.06,43.06,0,0,1,31.11,4.8a23.57,23.57,0,0,1,3.34,1.29c0-.16,0-.32,0-.45a22.8,22.8,0,0,0-3.37-1.31A43.06,43.06,0,0,0,18.53,2.62,42.74,42.74,0,0,0,6,4.33,24.21,24.21,0,0,0,2.61,5.65c0,.13,0,.29,0,.46A23.25,23.25,0,0,1,6,4.8Z"/><path class="cls-12" d="M97,33.74h-1.9c0-.89-.74-1.33-2.2-1.33A3.4,3.4,0,0,0,90,33.6a4.15,4.15,0,0,0-.79,2.68,2,2,0,0,0,.64,1.58,2.85,2.85,0,0,0,2,.62A8.5,8.5,0,0,0,94,38.25l.36-1.7H92.69L93,35.18h3.56l-.86,4a11.85,11.85,0,0,1-3.94.66,5.37,5.37,0,0,1-3.2-.87,3.08,3.08,0,0,1-1.31-2.64,5.16,5.16,0,0,1,1.4-3.8A5.83,5.83,0,0,1,92.93,31a5.68,5.68,0,0,1,2.67.56A2.38,2.38,0,0,1,97,33.74Z"/><path class="cls-12" d="M103.29,33.64l-.39,1.66a4,4,0,0,0-1.1-.14c-1,0-1.62.68-1.91,2.05l-.52,2.47H97.52l1.3-6.07h1.83l-.2.94a2.43,2.43,0,0,1,1.86-1A3.75,3.75,0,0,1,103.29,33.64Z"/><path class="cls-12" d="M111.61,36a3.64,3.64,0,0,1-.71,2.2,3.93,3.93,0,0,1-1.89,1.4,5.27,5.27,0,0,1-1.83.27,4.26,4.26,0,0,1-2.51-.68,2.2,2.2,0,0,1-1-1.9,3.71,3.71,0,0,1,2.37-3.51,5.34,5.34,0,0,1,2.06-.34,4.26,4.26,0,0,1,2.45.65A2.18,2.18,0,0,1,111.61,36Zm-1.92,0a1.32,1.32,0,0,0-.42-1,1.61,1.61,0,0,0-1.12-.37,2.36,2.36,0,0,0-1.93.8,3,3,0,0,0-.62,2,1.26,1.26,0,0,0,.48,1.05,1.68,1.68,0,0,0,1.08.34,2.3,2.3,0,0,0,1.93-.82A2.93,2.93,0,0,0,109.69,36Z"/><path class="cls-12" d="M120.64,33.61l-1.29,6.07H117.5l.19-.93a2.61,2.61,0,0,1-.89.73,2.79,2.79,0,0,1-1.38.38,2.82,2.82,0,0,1-1.88-.58,1.86,1.86,0,0,1-.7-1.48,2.61,2.61,0,0,1,0-.48l.8-3.71h1.87l-.76,3.58a2.61,2.61,0,0,0,0,.35,1.07,1.07,0,0,0,.33.83,1.19,1.19,0,0,0,.85.3,2,2,0,0,0,1.38-.58,2.94,2.94,0,0,0,.81-1.54l.63-2.94Z"/><path class="cls-12" d="M129.51,35.89a3.64,3.64,0,0,1-1.13,2.83,5.43,5.43,0,0,1-3.75,1.14,5.19,5.19,0,0,1-1.4-.16l-.52,2.3h-1.83l1.78-8.39h1.86l-.18.82a3.15,3.15,0,0,1,2.36-1,3,3,0,0,1,2.12.67A2.34,2.34,0,0,1,129.51,35.89Zm-1.95,0c0-.85-.4-1.28-1.21-1.28-1.35,0-2.21.81-2.56,2.45l-.34,1.56a3.67,3.67,0,0,0,1.16.15,3.17,3.17,0,0,0,1.7-.42,2.54,2.54,0,0,0,.94-1.11A3.16,3.16,0,0,0,127.56,35.87Z"/><path class="cls-13" d="M137.58,14.41c-.09-.38-.46-1-1.8-1H116.51a3.78,3.78,0,0,0-2.34.77,4.53,4.53,0,0,0-1.42,1.72l-4.4,9.68,3.4,2.12a2.25,2.25,0,0,0,1,.31H129.7a3.8,3.8,0,0,0,1.7-.52,3.91,3.91,0,0,0,1.69-2l4.24-9.3A2.63,2.63,0,0,0,137.58,14.41ZM124.24,25.55H118.8a1.14,1.14,0,0,1-.93-1.58l3.69-8.1h5.37a1.15,1.15,0,0,1,1,1.51Z"/><polygon class="cls-12" points="167.54 13.39 160.88 27.98 169.71 27.99 176.36 13.4 167.54 13.39"/><polygon class="cls-12" points="59.77 13.39 52.09 21.27 50.03 13.39 41.78 13.39 45.58 27.98 53.83 27.98 68.07 13.39 59.77 13.39"/><path class="cls-13" d="M90.41,15.86l1.12-2.47h-22L64,25.56l3.3,2.05a2.17,2.17,0,0,0,1.08.38H84.88L86,25.56H74.57A1.17,1.17,0,0,1,73.5,24l1-2.12H87.67l1.07-2.37H75.55l1.66-3.65Z"/><path class="cls-13" d="M105,25.56H98.51a1.14,1.14,0,0,1-1-1.55l4.84-10.62H93.65s-5.51,12.08-5.54,12.17L90.9,27.3a3,3,0,0,0,1.63.69H108.9Z"/><path class="cls-13" d="M148.49,15.86h15.8l1.11-2.47H143.34a3.87,3.87,0,0,0-2.35.77,4.29,4.29,0,0,0-1.41,1.73l-4.42,9.67,2.76,1.72a3.36,3.36,0,0,0,1.55.71h19.29l1.11-2.44H145.81a1.12,1.12,0,0,1-1-1.56Z"/></g></g></svg>